<?xml version="1.0" encoding="UTF-8" standalone="no"?>
<svg
   xmlns:dc="http://purl.org/dc/elements/1.1/"
   xmlns:cc="http://creativecommons.org/ns#"
   xmlns:rdf="http://www.w3.org/1999/02/22-rdf-syntax-ns#"
   xmlns:svg="http://www.w3.org/2000/svg"
   xmlns="http://www.w3.org/2000/svg"
   viewBox="0 0 1333.3333 1066.6667"
   height="1066.6667"
   width="1333.3333"
   xml:space="preserve"
   id="svg2"
   version="1.1"><metadata
     id="metadata8"><rdf:RDF><cc:Work
         rdf:about=""><dc:format>image/svg+xml</dc:format><dc:type
           rdf:resource="http://purl.org/dc/dcmitype/StillImage" /></cc:Work></rdf:RDF></metadata><defs
     id="defs6" /><g
     transform="matrix(1.3333333,0,0,-1.3333333,0,1066.6667)"
     id="g10"><g
       transform="scale(0.1)"
       id="g12"><path
         id="path14"
         style="fill:#2f2e2f;fill-opacity:1;fill-rule:nonzero;stroke:none"
         d="m 4440.52,4993.07 c 0,0 29.11,174.7 -40.77,314.47 -69.88,139.76 -282.44,497.91 -282.44,754.15 0,0 -90.69,-181.38 -7.75,-440.02 4.79,-14.94 3.72,-31.14 -2.98,-45.33 -23.24,-49.23 -75.99,-165.46 -73.71,-201.83 2.91,-46.59 69.88,-29.12 75.7,-49.5 5.83,-20.39 -52.41,-84.44 -29.11,-104.83 23.29,-20.38 61.14,-14.56 61.14,-29.11 0,-14.56 -40.76,-52.42 -20.38,-81.53 20.38,-29.12 49.5,2.91 61.15,-46.59 11.65,-49.5 3.03,-119.38 58.3,-148.5 55.26,-29.12 209.58,78.62 264.9,-20.39 0,0 -349.55,-276.61 -471.77,-495 -122.23,-218.38 -221.23,-532.85 -145.52,-1097.74 0,0 69.88,308.65 247.5,381.45 177.62,72.79 602.74,-529.95 733.77,-646.42 131.03,-116.47 460.06,-428.03 742.5,-457.15 282.44,-29.11 448.41,267.89 512.47,541.59 64.06,273.71 -84.44,858.98 -165.97,1234.6 -81.53,375.62 -224.21,722.12 -267.88,1147.24 -43.68,425.11 -119.38,675.53 -369.8,786.17 -250.41,110.65 -363.97,104.83 -454.24,113.56 -76.72,7.43 -317.54,10.65 -457.8,-54.72 -52.69,-24.55 -110.03,-37.35 -168.08,-34.33 -81.91,4.27 -186.65,6.6 -215.62,-7.03 -49.5,-23.3 -5.32,-256.05 23.29,-343.59 0,0 32.04,101.91 78.62,139.76 0,0 8.83,-82.42 46.59,-230.03 96.09,-375.62 346.5,-509.56 267.89,-879.35" /><path
         id="path16"
         style="fill:#575e61;fill-opacity:1;fill-rule:nonzero;stroke:none"
         d="m 3730.73,1593.8 c -36.39,0 -61.46,24.51 -61.46,57.7 h 29.11 c 0,-17.81 11.33,-33.19 32.35,-33.19 19.94,0 32.1,13.15 32.1,30.97 0,19.57 -15.37,24.03 -32.1,29.96 -31.01,10.93 -55.79,19.33 -55.79,55 0,28.51 25.33,49.79 55.79,49.79 33.18,0 57.19,-20.08 57.19,-51.04 h -29.13 c 0,15.86 -10.79,26.52 -28.06,26.52 -14.54,0 -26.68,-11.65 -26.68,-25.01 0,-38.89 87.9,-15.6 87.9,-85.22 0,-32.93 -25.63,-55.48 -61.22,-55.48" /><path
         id="path18"
         style="fill:#575e61;fill-opacity:1;fill-rule:nonzero;stroke:none"
         d="m 4130.19,1597.27 v 183.31 h 29.14 v -158.8 h 69.28 v -24.51 h -98.42" /><path
         id="path20"
         style="fill:#575e61;fill-opacity:1;fill-rule:nonzero;stroke:none"
         d="m 4670.72,1759.51 c -31.03,0 -55.56,-15.37 -67.68,-41.37 -4.34,-9.16 -7.04,-19.06 -7.04,-29.22 0,-10.17 2.7,-20.33 7.04,-29.73 12.38,-25.75 36.92,-40.88 67.68,-40.88 32.87,0 58.2,17.34 69.54,45.35 3.24,7.67 5.13,16.1 5.13,24.51 0,38.88 -31.29,71.34 -74.67,71.34 z m 0,-165.71 c -57.18,0 -103.84,42.6 -103.84,95.12 0,53.02 46.39,95.11 103.84,95.11 58.2,0 103.8,-42.35 103.8,-95.62 0,-52.24 -46.92,-94.61 -103.8,-94.61" /><path
         id="path22"
         style="fill:#575e61;fill-opacity:1;fill-rule:nonzero;stroke:none"
         d="m 5258.37,1602.72 c -13.49,-5.7 -28.56,-8.92 -43.4,-8.92 -57.17,0 -102.21,42.37 -102.21,94.61 0,52.52 44.24,95.62 101.94,95.62 37.49,0 71.7,-19.32 89.53,-49.53 h -34 c -14.83,15.36 -31.54,25.01 -54.47,25.01 -42.05,0 -73.87,-33.44 -73.87,-71.1 0,-37.14 32.91,-70.1 74.15,-70.1 31.82,0 57.45,18.57 68.78,45.58 h -93.06 v 24.52 h 126.22 c -0.54,-37.66 -21.84,-69.84 -59.61,-85.69" /><path
         id="path24"
         style="fill:#575e61;fill-opacity:1;fill-rule:nonzero;stroke:none"
         d="m 5745.48,1745.9 h -0.56 l -25.58,-70.13 h 51.5 z m 57.45,-148.63 -22.12,54 h -71.71 l -22.12,-54 h -30.74 l 75.76,183.31 h 26.19 l 75.74,-183.31 h -31" /><path
         id="path26"
         style="fill:#575e61;fill-opacity:1;fill-rule:nonzero;stroke:none"
         d="m 6300.5,1597.27 -98.65,141.68 h -0.54 v -141.68 h -29.12 v 183.31 H 6204 l 97.05,-139.49 h 0.57 v 139.49 h 29.11 v -183.31 h -30.23" /><path
         id="path28"
         style="fill:#252929;fill-opacity:1;fill-rule:nonzero;stroke:none"
         d="m 3006.49,2288.24 2.47,1.99 c 51.07,-1.52 80.52,-2.27 88.35,-2.27 7,0 36.55,0.75 88.66,2.27 l 2.47,-1.99 v -14.19 l -2.47,-1.98 c -14.2,-0.39 -25.17,-0.95 -32.9,-1.71 -7.72,-0.75 -13.33,-2.18 -16.83,-4.25 -3.51,-2.09 -5.83,-6.96 -6.96,-14.62 -1.13,-7.67 -1.69,-18.31 -1.69,-31.93 l -0.62,-65.27 v -125.45 c 0,-31.41 0.2,-53.35 0.62,-65.84 l 1.54,-49.1 h 63.02 c 50.25,0 81.6,0.57 94.07,1.7 12.46,1.14 24.45,3.88 35.99,8.23 2.27,4.73 5.51,15.61 9.73,32.64 4.22,17.03 6.43,26.87 6.65,29.52 l 2.77,2.27 h 15.14 l 2.16,-2.27 c -1.65,-7.57 -3.35,-22.24 -5.09,-43.99 -1.76,-21.76 -2.63,-39.36 -2.63,-52.79 l -2.47,-2.27 c -39.14,1.14 -90.51,1.71 -154.16,1.71 l -90.2,0.56 c -20.6,0 -41.61,-0.75 -63.02,-2.27 l -2.47,2.27 v 9.36 l 2.47,2.85 c 12.76,6.05 19.76,9.74 21,11.07 1.24,1.32 2.52,13.52 3.87,36.6 1.33,23.08 2.01,50.9 2.01,83.44 v 121.76 l -0.63,55.34 c -0.2,21.57 -0.77,35.47 -1.69,41.72 -0.93,6.24 -2.38,10.4 -4.33,12.48 -1.96,2.09 -5.71,3.79 -11.27,5.11 -5.57,1.32 -19.26,2.36 -41.09,3.13 l -2.47,1.98 v 14.19" /><path
         id="path30"
         style="fill:#252929;fill-opacity:1;fill-rule:nonzero;stroke:none"
         d="m 3460.61,2103.49 c 0,-23.09 4.06,-47.92 12.2,-74.5 8.14,-26.59 20.28,-49.39 36.46,-68.4 16.16,-19.02 34.8,-33.16 55.91,-42.43 21.11,-9.27 45.15,-13.91 72.14,-13.91 31.92,0 60.34,6.71 85.26,20.15 24.92,13.44 43.87,34.29 56.84,62.58 12.98,28.28 19.46,60.03 19.46,95.22 0,38.21 -7.41,72.74 -22.24,103.59 -14.83,30.84 -35.94,53.25 -63.33,67.26 -27.39,14 -57.77,21 -91.13,21 -50.05,0 -89.49,-14.38 -118.33,-43.14 -28.83,-28.76 -43.24,-71.23 -43.24,-127.42 z m -64.26,-18.74 c 0,28.38 4.43,54.87 13.29,79.47 8.85,24.59 23.94,47.34 45.25,68.25 21.32,20.91 47.01,37.09 77.08,48.53 30.06,11.45 64.05,17.18 101.95,17.18 70.22,0 126.15,-17.55 167.75,-52.65 41.59,-35.1 62.4,-83.01 62.4,-143.75 0,-42.76 -10.2,-81.17 -30.59,-115.23 -20.39,-34.05 -49.58,-60.54 -87.58,-79.46 -38,-18.91 -80.68,-28.38 -128.05,-28.38 -33.57,0 -64.46,5.16 -92.67,15.47 -28.22,10.31 -52.27,25.69 -72.14,46.12 -19.88,20.43 -34.29,44.08 -43.25,70.95 -8.96,26.86 -13.44,51.37 -13.44,73.5" /><path
         id="path32"
         style="fill:#252929;fill-opacity:1;fill-rule:nonzero;stroke:none"
         d="m 4341.68,2043.88 v -8.51 l -1.24,-3.41 -15.14,-8.23 c -3.71,-2.08 -5.87,-3.69 -6.49,-4.82 -0.61,-1.14 -1.39,-6.77 -2.32,-16.89 -0.92,-10.12 -1.38,-22.47 -1.38,-37.03 0,-16.46 1.12,-34.34 3.39,-53.64 l -1.85,-2.84 c -56.43,-19.86 -114.41,-29.8 -173.92,-29.8 -45.73,0 -87.02,7.94 -123.89,23.84 -36.86,15.9 -66.11,39.45 -87.73,70.67 -21.63,31.21 -32.44,68.3 -32.44,111.25 0,65.46 24.35,117.49 73.06,156.09 48.71,38.6 112.3,57.9 190.76,57.9 57.67,0 109.47,-8.99 155.39,-26.96 l 2.17,-3.12 c -3.71,-12.68 -8.04,-39.27 -12.97,-79.76 l -2.47,-1.98 h -14.22 l -2.47,2.27 -1.55,30.08 c -0.61,9.84 -1.28,15.61 -2,17.31 -0.72,1.71 -2.94,3.93 -6.64,6.68 -3.71,2.74 -13.24,7.09 -28.58,13.05 -15.35,5.96 -30.73,10.31 -46.18,13.05 -15.45,2.74 -32.03,4.12 -49.74,4.12 -37.7,0 -71.05,-7.19 -100.09,-21.57 -29.04,-14.38 -50.93,-35.33 -65.65,-62.86 -14.73,-27.53 -22.09,-58.14 -22.09,-91.82 0,-34.81 7.93,-67.21 23.79,-97.2 15.86,-29.99 38.61,-53.4 68.27,-70.24 29.66,-16.84 64.15,-25.26 103.49,-25.26 17.09,0 34.55,1.56 52.36,4.69 17.82,3.12 32.49,7.52 44.03,13.2 1.85,6.05 2.78,18.25 2.78,36.6 v 31.51 c 0,14.94 -1.04,24.26 -3.09,27.95 -2.06,3.69 -7.16,6.29 -15.29,7.8 -8.14,1.52 -25.7,2.46 -52.68,2.84 l -2.77,2.56 v 12.48 l 2.77,2.56 18.85,-0.57 c 32.33,-0.95 58.69,-1.42 79.08,-1.42 11.74,0 28.94,0.57 51.59,1.71 l 3.1,-2.28" /><path
         id="path34"
         style="fill:#252929;fill-opacity:1;fill-rule:nonzero;stroke:none"
         d="m 4440.84,2103.49 c 0,-23.09 4.06,-47.92 12.2,-74.5 8.14,-26.59 20.29,-49.39 36.46,-68.4 16.16,-19.02 34.8,-33.16 55.92,-42.43 21.11,-9.27 45.15,-13.91 72.13,-13.91 31.92,0 60.34,6.71 85.26,20.15 24.92,13.44 43.87,34.29 56.85,62.58 12.97,28.28 19.46,60.03 19.46,95.22 0,38.21 -7.42,72.74 -22.24,103.59 -14.83,30.84 -35.94,53.25 -63.34,67.26 -27.39,14 -57.77,21 -91.13,21 -50.05,0 -89.49,-14.38 -118.32,-43.14 -28.83,-28.76 -43.25,-71.23 -43.25,-127.42 z m -64.25,-18.74 c 0,28.38 4.42,54.87 13.28,79.47 8.85,24.59 23.94,47.34 45.25,68.25 21.32,20.91 47.01,37.09 77.08,48.53 30.07,11.45 64.05,17.18 101.95,17.18 70.23,0 126.15,-17.55 167.75,-52.65 41.6,-35.1 62.4,-83.01 62.4,-143.75 0,-42.76 -10.19,-81.17 -30.58,-115.23 -20.39,-34.05 -49.59,-60.54 -87.58,-79.46 -38,-18.91 -80.69,-28.38 -128.05,-28.38 -33.58,0 -64.47,5.16 -92.68,15.47 -28.22,10.31 -52.27,25.69 -72.14,46.12 -19.88,20.43 -34.29,44.08 -43.25,70.95 -8.95,26.86 -13.43,51.37 -13.43,73.5" /><path
         id="path36"
         style="fill:#252929;fill-opacity:1;fill-rule:nonzero;stroke:none"
         d="m 5037.69,1887.23 -2.78,2.55 v 13.06 l 2.78,2.27 c 12.56,0.18 22.6,0.84 30.12,1.98 7.51,1.13 12.35,3.03 14.52,5.68 2.16,2.64 3.6,6.9 4.32,12.77 0.73,5.86 1.44,19.11 2.17,39.73 0.71,20.62 1.08,35.38 1.08,44.27 v 229.32 c 0,9.65 -1.91,16.79 -5.72,21.43 -3.81,4.63 -9.01,7.56 -15.6,8.79 -6.6,1.23 -17.82,1.94 -33.67,2.13 l -2.48,2.27 v 13.34 l 2.48,2.55 c 28.42,-0.94 47.06,-1.41 55.92,-1.41 20.79,0 37.89,0.47 51.28,1.41 l 98.55,-117.49 144.88,-166.87 c 17.5,-20.25 35.32,-39.45 53.45,-57.62 v 219.67 c 0,6.81 -0.36,21.33 -1.09,43.56 -0.72,22.23 -1.59,36.33 -2.62,42.29 -1.03,5.96 -2.83,9.98 -5.41,12.06 -2.58,2.08 -7.41,3.64 -14.52,4.69 -7.11,1.03 -16.73,1.64 -28.88,1.84 l -2.47,2.26 v 13.06 l 2.47,2.55 c 16.68,-0.94 40.47,-1.41 71.36,-1.41 28.22,0 48.71,0.47 61.48,1.41 l 2.78,-2.55 v -13.06 l -2.47,-2.26 c -13.6,-0.2 -24.1,-0.9 -31.51,-2.13 -7.42,-1.24 -12.05,-3.26 -13.9,-6.1 -1.86,-2.84 -3.15,-7 -3.87,-12.49 -0.72,-5.49 -1.44,-18.55 -2.16,-39.17 -0.72,-20.62 -1.08,-35.47 -1.08,-44.55 v -134.81 l 0.3,-78.05 c 0.41,-25.54 0.83,-51.18 1.25,-76.91 -10.31,3.22 -28.12,7.2 -53.45,11.92 l -21.94,23.84 -65.8,73.79 -209.45,240.38 v -217.68 c 0,-8.7 0.36,-24.22 1.08,-46.54 0.72,-22.33 1.6,-35.85 2.63,-40.58 1.03,-4.73 2.36,-8 4.01,-9.79 1.65,-1.81 5.2,-3.46 10.66,-4.97 5.46,-1.52 16.73,-2.37 33.83,-2.55 l 2.47,-2.27 v -13.34 l -2.47,-2.27 c -10.71,1.32 -28.02,1.98 -51.9,1.98 -30.69,0 -57.57,-0.66 -80.63,-1.98" /><path
         id="path38"
         style="fill:#252929;fill-opacity:1;fill-rule:nonzero;stroke:none"
         d="m 5697.56,2046.16 h 156.32 l -77.53,171.13 z m -140.87,-159.22 -2.78,2.27 v 14.76 l 2.78,2.27 c 15.03,0.19 24.71,0.89 29.04,2.13 4.33,1.22 8.18,3.69 11.59,7.38 3.4,3.69 10.24,15.75 20.54,36.18 l 32.44,64.71 84.03,174.83 c 15.85,34.24 31.61,68.49 47.26,102.73 h 20.08 l 131.91,-284.94 17.62,-38.03 c 5.14,-10.78 11.06,-22.52 17.76,-35.19 6.69,-12.68 11.32,-20.15 13.9,-22.42 2.57,-2.27 5.76,-4.03 9.58,-5.25 3.81,-1.24 12.3,-1.94 25.48,-2.13 l 2.48,-2.27 v -14.76 l -2.48,-2.27 c -21.83,1.71 -41.5,2.56 -59,2.56 -34.19,-0.95 -68.38,-1.8 -102.57,-2.56 l -2.47,2.27 v 14.76 l 2.47,2.27 c 23.06,0.38 37.49,1.28 43.26,2.7 5.75,1.42 8.64,4.68 8.64,9.79 0,4.15 -1.44,9.65 -4.32,16.46 l -38,86.56 h -178.87 l -33.67,-72.66 c -5.98,-13.05 -8.96,-22.61 -8.96,-28.66 0,-4.73 2.78,-8.23 8.34,-10.5 5.56,-2.27 19.56,-3.5 42.01,-3.69 l 2.78,-2.27 v -14.76 l -2.47,-2.27 c -26.57,1.52 -49.84,2.27 -69.81,2.27 -22.67,0 -45.53,-0.75 -68.59,-2.27" /><path
         id="path40"
         style="fill:#252929;fill-opacity:1;fill-rule:nonzero;stroke:none"
         d="m 6616.32,2289.37 2.77,-2.27 v -13.9 l -2.47,-1.99 c -22.66,-0.56 -36.71,-1.6 -42.16,-3.12 -5.47,-1.52 -9.33,-4.02 -11.59,-7.52 -2.27,-3.51 -3.55,-10.36 -3.86,-20.58 -0.31,-10.21 -0.88,-39.07 -1.7,-86.56 V 2022.6 c 0,-18.92 0.31,-40.3 0.92,-64.14 0.62,-23.84 1.91,-37.7 3.87,-41.58 1.96,-3.88 5.51,-6.71 10.66,-8.51 5.14,-1.8 19.77,-2.98 43.86,-3.55 l 2.47,-1.98 v -13.91 l -2.77,-2.28 c -33.58,1.71 -62.82,2.56 -87.74,2.56 -16.89,0 -45.62,-0.85 -86.19,-2.56 l -2.78,2.28 v 13.62 l 2.47,2.27 c 22.65,0.57 36.71,1.61 42.17,3.12 5.45,1.51 9.31,4.02 11.58,7.52 2.27,3.5 3.61,10.46 4.02,20.86 0.41,10.41 0.92,39.17 1.54,86.28 v 208.31 L 6394.82,2026 c -26.79,-51.27 -50.16,-99.52 -70.13,-144.73 h -12.05 c -11.54,24.4 -21.01,43.89 -28.42,58.46 l -147.67,281.82 v -198.38 c 0,-18.55 0.25,-39.88 0.77,-64 0.51,-24.12 1.8,-38.08 3.86,-41.86 2.06,-3.79 5.67,-6.63 10.81,-8.51 5.16,-1.9 19.78,-3.04 43.88,-3.41 l 2.47,-2.27 v -13.62 l -2.79,-2.56 -19.77,0.85 c -20.39,0.95 -37.89,1.42 -52.51,1.42 -6.6,0 -31.21,-0.75 -73.84,-2.27 l -2.47,2.27 v 13.63 l 2.47,2.55 c 22.66,0.37 36.66,1.32 42.01,2.83 5.36,1.52 9.22,4.07 11.59,7.67 2.36,3.59 3.71,10.31 4.01,20.15 0.32,9.83 0.78,38.88 1.4,87.13 v 129.98 c 0,17.21 -0.26,38.17 -0.77,62.86 -0.52,24.7 -1.76,38.98 -3.71,42.86 -1.97,3.88 -5.52,6.76 -10.66,8.65 -5.15,1.89 -19.78,3.03 -43.87,3.41 l -2.47,2.27 v 13.62 l 2.78,2.55 c 14.21,-0.94 33.37,-1.41 57.46,-1.41 22.66,0 42.42,0.47 59.32,1.41 17.3,-36.7 33.87,-69.9 49.73,-99.61 l 117.09,-220.8 105.65,202.35 c 28.62,54.68 47.88,94.03 57.77,118.06 19.78,-0.94 39.23,-1.41 58.39,-1.41 17.29,0 37.68,0.47 61.17,1.41" /><path
         id="path42"
         style="fill:#252929;fill-opacity:1;fill-rule:nonzero;stroke:none"
         d="m 6656.16,2288.24 2.48,1.99 c 70.63,-1.14 115.84,-1.7 135.62,-1.7 67.55,0 127.69,0.56 180.41,1.7 l 1.54,-1.99 c -5.14,-18.16 -8.95,-46.64 -11.43,-85.43 l -1.85,-2.27 h -15.14 l -2.77,2.27 c 0.19,1.71 0.3,3.22 0.3,4.55 0,16.07 -1.34,31.4 -4.01,45.97 -12.98,5.3 -30.95,8.75 -53.91,10.37 -22.97,1.6 -40.22,2.41 -51.75,2.41 -16.27,0 -37.07,-1.05 -62.4,-3.13 l -1.24,-45.41 -0.93,-51.93 -0.92,-57.62 c 22.24,-1.13 42.73,-1.7 61.47,-1.7 18.95,0 34.81,0.57 47.58,1.7 12.77,1.14 20.24,2.32 22.4,3.55 2.16,1.23 3.81,3.59 4.94,7.1 1.13,3.5 2.11,9.69 2.94,18.59 l 1.23,17.59 2.47,2.27 h 14.21 l 2.47,-2.27 c -0.41,-20.62 -0.93,-41.34 -1.54,-62.15 l 1.54,-63.86 -2.47,-2.27 h -14.21 l -2.47,2.27 -2.16,17.03 c -1.85,13.24 -3.19,21.14 -4.02,23.7 -0.82,2.55 -2.73,4.77 -5.71,6.67 -2.99,1.89 -10.66,3.41 -23.02,4.54 -12.35,1.14 -29.34,1.7 -50.97,1.7 -11.95,0 -30.17,-0.47 -54.68,-1.41 -1.03,-15.9 -1.55,-42.39 -1.55,-79.47 0,-39.73 0.52,-68.97 1.55,-87.7 H 6827 c 50.05,0 81.35,0.57 93.92,1.7 12.56,1.14 24.5,3.88 35.83,8.23 1.86,4.36 4.89,14.43 9.12,30.23 4.22,15.79 6.63,25.69 7.26,29.66 l 3.08,1.99 h 14.83 l 2.47,-1.99 c -1.85,-8.14 -3.65,-22.33 -5.4,-42.57 -1.76,-20.25 -2.63,-37.56 -2.63,-51.94 l -2.16,-2.27 c -39.34,1.14 -90.82,1.71 -154.46,1.71 l -84.03,0.56 c -19.57,0 -39.96,-0.75 -61.17,-2.27 l -2.47,2.27 v 9.36 l 2.47,2.85 c 12.15,5.67 19.1,9.22 20.85,10.64 1.75,1.42 3.19,17.97 4.33,49.67 1.13,31.68 1.7,55.85 1.7,72.51 v 104.15 l -0.31,64.42 c 0,14.01 -0.21,25.41 -0.62,34.21 -0.42,8.79 -1.13,15.08 -2.17,18.87 -1.03,3.78 -2.21,6.43 -3.55,7.94 -1.34,1.51 -3.5,2.79 -6.49,3.83 -2.98,1.05 -8.08,1.95 -15.28,2.7 l -23.48,1.71 -2.48,1.98 v 14.19" /></g></g></svg>